<?xml version="1.0" encoding="UTF-8"?>
<svg xmlns="http://www.w3.org/2000/svg" viewBox="0 0 128 128" width="128" height="128">
  <defs>
    <linearGradient id="g" x1="0" y1="0" x2="0" y2="1">
      <stop offset="0" stop-color="#f6d365"/>
      <stop offset="1" stop-color="#b8860b"/>
    </linearGradient>
  </defs>
  <rect x="10" y="12" width="108" height="104" rx="18" fill="#1b1f2a"/>
  <path d="M36 52c0-18 12-30 28-30s28 12 28 30v10c0 24-16 44-28 44S36 86 36 62V52z" fill="url(#g)" opacity="0.95"/>
  <path d="M42 50c-10-6-16-16-16-28 14 2 26 10 30 22" fill="none" stroke="#e7c35a" stroke-width="6" stroke-linecap="round"/>
  <path d="M86 50c10-6 16-16 16-28-14 2-26 10-30 22" fill="none" stroke="#e7c35a" stroke-width="6" stroke-linecap="round"/>
  <path d="M50 66h28" stroke="#2a1f0a" stroke-width="6" stroke-linecap="round" opacity="0.5"/>
  <path d="M56 82c4 4 12 4 16 0" fill="none" stroke="#2a1f0a" stroke-width="6" stroke-linecap="round" opacity="0.5"/>
</svg>
